<svg xmlns="http://www.w3.org/2000/svg" viewBox="0 0 512 512"><path d="M254.4 272.6h2.8c25.9-.4 46.8-9.6 62.3-26.9 34-38.3 28.3-104.1 27.8-110.4-2.3-47.1-24.5-69.6-42.8-80.2-13.7-7.8-29.7-12.1-47.5-12.4h-1.4c-9.8 0-29.1 1.6-47.5 12.1-18.6 10.5-41.2 33.1-43.4 80.5-.6 6.3-6.3 72 27.8 110.4 15.2 17.3 36.1 26.4 61.9 26.9zm-66.3-135.1c0-.3.1-.5.1-.7 2.9-63.3 47.9-70.2 67.2-70.2h1c23.8.5 64.4 10.3 67.2 70.2 0 .3 0 .5.1.7.1.6 6.3 60.7-21.8 92.4-11.2 12.6-26 18.8-45.5 18.9h-.8c-19.4-.2-34.3-6.3-45.4-18.9-28.2-31.6-22.2-91.9-22.1-92.4zm249.4 244.1v-.3l-.1-2.3c-.5-17.5-1.7-58.4-40-71.5l-.9-.3c-39.8-10.2-73-33.2-73.4-33.4-5.4-3.8-12.8-2.5-16.6 2.9s-2.5 12.8 2.9 16.6c1.5 1.1 36.7 25.5 80.7 36.8 20.6 7.3 22.9 29.3 23.5 49.5 0 .8 0 1.5.1 2.3.1 7.9-.4 20.3-1.8 27.3-14.3 8.2-70.4 36.3-155.8 36.3-85 0-141.4-28.2-155.9-36.3-1.4-7.1-2-19.3-1.8-27.3 0-.7.1-1.4.1-2.3.6-20.2 2.9-42.2 23.5-49.5 44-11.3 79.2-35.8 80.7-36.8 5.4-3.8 6.8-11.3 2.9-16.6-3.8-5.4-11.3-6.8-16.6-2.9-.3.3-33.3 23.3-73.4 33.4l-.9.3c-38.3 13.2-39.5 54.1-40 71.5 0 .8 0 1.5-.1 2.3v.3c-.1 4.6-.2 28.2 4.5 40 .9 2.3 2.5 4.3 4.6 5.6 2.7 1.8 66.2 42.3 172.5 42.3s169.9-40.6 172.5-42.3c2-1.3 3.8-3.3 4.6-5.6 4.3-11.8 4.3-35.4 4.2-40z"/></svg>