<svg xmlns="http://www.w3.org/2000/svg" viewBox="0 0 512 512"><path d="M442.4 102.5C418.2 70.7 378.8 51.7 337 51.7c-30.4 0-59.2 10.9-80.9 29.5-21.7-18.6-50.7-29.5-81.2-29.5-41.8 0-81.1 19-105.3 50.7-19.8 26.1-39 73.4-17.6 150.5l.4 1.2c17.5 54 55 104.7 111.4 150.6.7.6 71 55.7 92.3 55.7s91.5-55.1 92.2-55.7c56.3-45.9 93.8-96.5 111.3-150.6l.4-1.2c21.4-77 2.2-124.3-17.6-150.4zm-11.1 142.4c-37.9 116.9-175.1 185.6-175.1 185.6-.1 0-137.4-68.7-175.3-185.6-33.4-119.6 39.6-163.4 93.9-163.4 34.8 0 66.6 18.2 81.3 46.6 14.6-28.4 46.1-46.6 80.9-46.6 54.3 0 127.5 43.8 94.3 163.4z"/></svg>