<svg xmlns="http://www.w3.org/2000/svg" viewBox="0 0 512 512">
        <path d="M403.6 337.5c-.8-2.5-6.2-6.2-16-11.2l-24.8-13.7c-4-2.2-7.8-4.4-11.3-6.5-.6-.4-2.3-1.6-5.3-3.7-3-2-5.4-3.5-7.5-4.5-2-1-4-1.5-6-1.5-2.8 0-6.3 2-10.5 6s-8.1 8.4-11.6 13.1-7.2 9.1-11.2 13.1c-3.9 4-7.2 6-9.7 6-1.3 0-2.8-.4-4.7-1.1s-3.3-1.3-4.3-1.8-2.7-1.5-5-3c-2.4-1.5-3.7-2.3-4-2.4-19.2-10.7-35.7-22.9-49.5-36.6-13.8-13.8-26-30.3-36.6-49.5-.1-.3-.9-1.6-2.4-4s-2.5-4.1-2.9-5.1c-.5-1-1.1-2.4-1.8-4.3s-1.1-3.5-1.1-4.7c0-2.5 2-5.8 6-9.7s8.4-7.7 13.1-11.2 9.1-7.4 13.1-11.6 6-7.7 6-10.5c0-2-.5-4-1.5-6s-2.5-4.5-4.5-7.5l-3.7-5.3c-2.1-3.5-4.3-7.3-6.5-11.3l-13.7-24.8c-4.9-9.8-8.6-15.2-11.2-16-1-.4-2.5-.6-4.4-.6-3.8 0-8.7.7-14.8 2.1s-10.9 2.9-14.4 4.4c-7 2.9-14.5 11.5-22.3 25.7-7.2 13.2-10.7 26.3-10.7 39.2 0 3.8.2 7.5.7 11.1s1.4 7.6 2.6 12.1c1.3 4.5 2.3 7.8 3.1 10l4.3 11.7 3.8 10.3c4.9 13.8 10.7 26 17.5 36.9 11.1 18 26.2 36.5 45.4 55.7s37.7 34.3 55.7 45.4c10.8 6.7 23.1 12.6 36.9 17.5 1.3.4 4.7 1.7 10.3 3.8l11.7 4.3c2.2.8 5.5 1.8 10 3.1s8.5 2.1 12.1 2.6 7.3.7 11.1.7c12.9 0 26-3.6 39.2-10.7 14.2-7.9 22.7-15.3 25.7-22.3 1.6-3.5 3-8.3 4.4-14.4s2.1-11.1 2.1-14.8c-.2-2-.5-3.5-.9-4.5z"/>
      </svg>